<svg xmlns="http://www.w3.org/2000/svg" width="49.119" height="50" viewBox="0 0 49.119 50">
  <path id="Icon_awesome-facebook" data-name="Icon awesome-facebook" d="M49.682,25.715C49.682,11.82,38.689.563,25.122.563S.563,11.82.563,25.715A24.986,24.986,0,0,0,21.285,50.563V32.985H15.046V25.715h6.239V20.173c0-6.3,3.664-9.785,9.276-9.785a36.933,36.933,0,0,1,5.5.491v6.187h-3.1c-3.05,0-4,1.939-4,3.928v4.721h6.811l-1.089,7.271H28.959V50.563A24.986,24.986,0,0,0,49.682,25.715Z" transform="translate(-0.563 -0.563)" fill="#fab250"/>
</svg>
