<svg id="conversation" xmlns="http://www.w3.org/2000/svg" width="35.869" height="35.307" viewBox="0 0 35.869 35.307">
  <g id="Group_44" data-name="Group 44">
    <g id="Group_43" data-name="Group 43" transform="translate(0 0)">
      <path id="Path_336" data-name="Path 336" d="M35.74,31.882l-2.083-6.063A15.167,15.167,0,0,0,20.289,4.013,15.15,15.15,0,0,0,4.895,18.964,11.04,11.04,0,0,0,1.544,32.529L.109,36.7a1.973,1.973,0,0,0,1.858,2.613,1.986,1.986,0,0,0,.646-.109l4.176-1.435a11.087,11.087,0,0,0,4.72,1.066h.017a11.024,11.024,0,0,0,8.914-4.533,15.2,15.2,0,0,0,6.26-1.533l6.063,2.083a2.361,2.361,0,0,0,.768.129,2.345,2.345,0,0,0,2.208-3.105ZM11.526,36.7h-.014a8.929,8.929,0,0,1-4.147-1.029,1.068,1.068,0,0,0-.846-.066L2.237,37.081,3.708,32.8a1.068,1.068,0,0,0-.066-.846A8.9,8.9,0,0,1,5.093,21.632,15.209,15.209,0,0,0,17.771,34.143,8.879,8.879,0,0,1,11.526,36.7Zm22.145-3.916a.194.194,0,0,1-.214.049l-6.491-2.23a1.067,1.067,0,0,0-.846.066,13.041,13.041,0,0,1-6.056,1.5h-.02A13.067,13.067,0,0,1,7.03,19.373,13.016,13.016,0,0,1,20.256,6.148a13.019,13.019,0,0,1,11.3,19.091,1.068,1.068,0,0,0-.066.846l2.23,6.491A.194.194,0,0,1,33.671,32.789Z" transform="translate(0 -4.011)" fill="#fab250"/>
    </g>
  </g>
  <g id="Group_46" data-name="Group 46" transform="translate(12.617 9.493)">
    <g id="Group_45" data-name="Group 45">
      <path id="Path_337" data-name="Path 337" d="M193.881,139.512H181.162a1.068,1.068,0,1,0,0,2.135h12.719a1.068,1.068,0,1,0,0-2.135Z" transform="translate(-180.094 -139.512)" fill="#fab250"/>
    </g>
  </g>
  <g id="Group_48" data-name="Group 48" transform="translate(12.617 13.883)">
    <g id="Group_47" data-name="Group 47">
      <path id="Path_338" data-name="Path 338" d="M193.881,202.183H181.162a1.068,1.068,0,1,0,0,2.135h12.719a1.068,1.068,0,1,0,0-2.135Z" transform="translate(-180.094 -202.183)" fill="#fab250"/>
    </g>
  </g>
  <g id="Group_50" data-name="Group 50" transform="translate(12.617 18.274)">
    <g id="Group_49" data-name="Group 49">
      <path id="Path_339" data-name="Path 339" d="M188.984,264.852H181.16a1.068,1.068,0,0,0,0,2.135h7.823a1.068,1.068,0,0,0,0-2.135Z" transform="translate(-180.093 -264.852)" fill="#fab250"/>
    </g>
  </g>
</svg>
