<svg xmlns="http://www.w3.org/2000/svg" width="50.411" height="51.998" viewBox="0 0 50.411 51.998">
  <g id="idea" transform="translate(0 0)">
    <g id="Group_55" data-name="Group 55" transform="translate(7.996 19.562)">
      <g id="Group_54" data-name="Group 54" transform="translate(0 0)">
        <path id="Path_345" data-name="Path 345" d="M405.535,192.912a1.016,1.016,0,1,1,1.436,1.436l-.048.046a1.016,1.016,0,0,1-1.389-1.482Z" transform="translate(-405.214 -192.615)" fill="#fab250"/>
      </g>
    </g>
    <g id="Group_57" data-name="Group 57" transform="translate(9.936 15.562)">
      <g id="Group_56" data-name="Group 56">
        <path id="Path_346" data-name="Path 346" d="M276.209,155.859a15.892,15.892,0,0,1,1.774-1.047,13.621,13.621,0,0,1,10.329-.985,1.016,1.016,0,1,1-.6,1.94,11.627,11.627,0,0,0-8.813.859,14.138,14.138,0,0,0-1.546.913,1.016,1.016,0,1,1-1.141-1.68Z" transform="translate(-275.764 -153.23)" fill="#fab250"/>
      </g>
    </g>
    <g id="Group_59" data-name="Group 59" transform="translate(0 6.445)">
      <g id="Group_58" data-name="Group 58">
        <path id="Path_347" data-name="Path 347" d="M72.81,88.347a13.067,13.067,0,0,0,1.118-2.8,9.6,9.6,0,0,1,1.224-9.13,19.027,19.027,0,0,1,14.825-7.865,18.173,18.173,0,0,1,8.373,2.034,8.694,8.694,0,1,1,13.087,8.982,1.7,1.7,0,0,0-.981,1.509v5.943a2.059,2.059,0,0,1-2.056,2.057h-.345a18.087,18.087,0,0,1-6.125,11.452,4,4,0,0,0,.277,1.974c.314,1.093.8,2.307,1.222,3.379.285.717.531,1.336.679,1.8a1.016,1.016,0,0,1-.968,1.323h-14.5a1.648,1.648,0,0,1-1.542-1.229,9.928,9.928,0,0,1-.42-1.537c-.121-.549-.4-1.834-.685-1.99a.207.207,0,0,0-.056,0,1,1,0,0,1-.158.012c-1.518,0-2.759.069-3.853.129-3.21.178-5.148.286-6.848-2.163-.864-1.245-.766-3.061-.663-4.984a18.138,18.138,0,0,0,.011-2.864,8.858,8.858,0,0,0-.9-.67c-.957-.658-1.862-1.278-1.862-2.222A8.9,8.9,0,0,1,72.81,88.347Zm37.565-10.508a6.663,6.663,0,1,0-6.951,0,3.7,3.7,0,0,1,1.78,2.176h3.39A3.7,3.7,0,0,1,110.375,77.838Zm-5,4.207v1.485h3.05V82.046Zm3.025,5a.029.029,0,0,0,.025-.025v-1.46h-3.05v1.46a.029.029,0,0,0,.025.025Zm-33.72,5c.874.6,1.629,1.119,1.74,1.9a18.081,18.081,0,0,1,.027,3.415c-.077,1.427-.164,3.044.3,3.717,1.011,1.456,1.885,1.47,5.067,1.293,1.05-.058,2.353-.131,3.9-.133a2.165,2.165,0,0,1,2.267,1.344,9.436,9.436,0,0,1,.684,2.225,10.8,10.8,0,0,0,.3,1.172h12.713l-.138-.347c-1.463-3.684-2.39-6.386-.979-7.6A16.072,16.072,0,0,0,106,89.078h-.6a2.059,2.059,0,0,1-2.056-2.057V81.081a1.7,1.7,0,0,0-.981-1.511,8.635,8.635,0,0,1-4.129-6.723,16.136,16.136,0,0,0-8.257-2.263,17.1,17.1,0,0,0-13.135,6.961,7.622,7.622,0,0,0-1.009,7.293c.4.959-.192,2.29-1.189,4.381a18.326,18.326,0,0,0-.914,2.115A9.6,9.6,0,0,0,74.679,92.044Z" transform="translate(-71.668 -63.458)" fill="#fab250"/>
      </g>
    </g>
    <g id="Group_61" data-name="Group 61" transform="translate(30.102 11.016)">
      <g id="Group_60" data-name="Group 60" transform="translate(0)">
        <path id="Path_348" data-name="Path 348" d="M170.661,111.158a4.066,4.066,0,0,1,2.156-2.575,1.016,1.016,0,0,1,.931,1.805,2.036,2.036,0,0,0-1.126,1.3,3.079,3.079,0,0,0,.282,2.1,1.016,1.016,0,1,1-1.713,1.092A5.091,5.091,0,0,1,170.661,111.158Z" transform="translate(-170.514 -108.47)" fill="#fab250"/>
      </g>
    </g>
    <g id="Group_63" data-name="Group 63" transform="translate(34.216 0)">
      <g id="Group_62" data-name="Group 62" transform="translate(0 0)">
        <path id="Path_349" data-name="Path 349" d="M148.295,0a1.016,1.016,0,0,1,1.016,1.016v2.9a1.016,1.016,0,0,1-2.031,0v-2.9A1.016,1.016,0,0,1,148.295,0Z" transform="translate(-147.279)" fill="#fab250"/>
      </g>
    </g>
    <g id="Group_65" data-name="Group 65" transform="translate(45.484 14.164)">
      <g id="Group_64" data-name="Group 64" transform="translate(0 0)">
        <path id="Path_350" data-name="Path 350" d="M8.831,139.465h2.9a1.016,1.016,0,1,1,0,2.031H8.83a1.016,1.016,0,0,1,0-2.031Z" transform="translate(-7.815 -139.465)" fill="#fab250"/>
      </g>
    </g>
    <g id="Group_67" data-name="Group 67" transform="translate(39.85 1.898)">
      <g id="Group_66" data-name="Group 66" transform="translate(0 0)">
        <path id="Path_351" data-name="Path 351" d="M77.681,21.7l1.447-2.506a1.016,1.016,0,1,1,1.759,1.016L79.44,22.714A1.016,1.016,0,0,1,77.681,21.7Z" transform="translate(-77.545 -18.684)" fill="#fab250"/>
      </g>
    </g>
    <g id="Group_69" data-name="Group 69" transform="translate(43.976 7.082)">
      <g id="Group_68" data-name="Group 68" transform="translate(0 0)">
        <path id="Path_352" data-name="Path 352" d="M27,71.318l2.507-1.447a1.016,1.016,0,1,1,1.016,1.759l-2.507,1.447A1.016,1.016,0,1,1,27,71.318Z" transform="translate(-26.495 -69.735)" fill="#fab250"/>
      </g>
    </g>
    <g id="Group_71" data-name="Group 71" transform="translate(21.949 7.082)">
      <g id="Group_70" data-name="Group 70" transform="translate(0 0)">
        <path id="Path_353" data-name="Path 353" d="M243.518,70.24a1.016,1.016,0,0,1,1.387-.372l2.507,1.447a1.016,1.016,0,1,1-1.016,1.759l-2.507-1.447A1.015,1.015,0,0,1,243.518,70.24Z" transform="translate(-243.382 -69.732)" fill="#fab250"/>
      </g>
    </g>
    <g id="Group_73" data-name="Group 73" transform="translate(43.975 19.798)">
      <g id="Group_72" data-name="Group 72" transform="translate(0 0)">
        <path id="Path_354" data-name="Path 354" d="M26.631,195.453a1.016,1.016,0,0,1,1.387-.372l2.507,1.447a1.016,1.016,0,1,1-1.015,1.759L27,196.841A1.016,1.016,0,0,1,26.631,195.453Z" transform="translate(-26.495 -194.946)" fill="#fab250"/>
      </g>
    </g>
    <g id="Group_75" data-name="Group 75" transform="translate(40.059 24.285)">
      <g id="Group_74" data-name="Group 74" transform="translate(0)">
        <path id="Path_355" data-name="Path 355" d="M78.053,239.263a1.016,1.016,0,0,1,1.387.372l1.238,2.145A1.016,1.016,0,1,1,78.92,242.8l-1.238-2.145A1.015,1.015,0,0,1,78.053,239.263Z" transform="translate(-77.545 -239.127)" fill="#fab250"/>
      </g>
    </g>
    <g id="Group_77" data-name="Group 77" transform="translate(27.133 1.897)">
      <g id="Group_76" data-name="Group 76" transform="translate(0 0)">
        <path id="Path_356" data-name="Path 356" d="M203.271,18.82a1.015,1.015,0,0,1,1.387.372l1.447,2.506a1.016,1.016,0,1,1-1.759,1.016L202.9,20.207A1.015,1.015,0,0,1,203.271,18.82Z" transform="translate(-202.763 -18.683)" fill="#fab250"/>
      </g>
    </g>
  </g>
</svg>
