<svg xmlns="http://www.w3.org/2000/svg" width="33.86" height="54.177" viewBox="0 0 33.86 54.177">
  <g id="iphone" transform="translate(-96)">
    <g id="Group_272" data-name="Group 272" transform="translate(96)">
      <path id="Path_518" data-name="Path 518" d="M126.474,0H99.386A3.392,3.392,0,0,0,96,3.386v47.4a3.389,3.389,0,0,0,3.386,3.386h27.088a3.387,3.387,0,0,0,3.386-3.386V3.386A3.389,3.389,0,0,0,126.474,0ZM112.93,50.791a3.386,3.386,0,1,1,3.386-3.386A3.387,3.387,0,0,1,112.93,50.791Zm13.544-10.158H99.386V6.772h27.088Z" transform="translate(-96)" fill="#fab250"/>
    </g>
  </g>
</svg>
