<svg xmlns="http://www.w3.org/2000/svg" width="35.864" height="35.861" viewBox="0 0 35.864 35.861">
  <g id="Page-1" transform="translate(0.003)">
    <g id="_003---Call" data-name="003---Call" transform="translate(-0.003)">
      <path id="Shape" d="M15.849,21.035a14.473,14.473,0,0,1-4.37-8.217,1.229,1.229,0,0,1,.353-1.029L14.6,9.02a1.237,1.237,0,0,0,.174-1.53L10.365.641A1.237,1.237,0,0,0,8.763.19L1.683,3.525A1.23,1.23,0,0,0,1,4.753c.371,3.524,1.907,12.188,10.422,20.7S28.6,35.507,32.127,35.878a1.23,1.23,0,0,0,1.229-.68l3.335-7.08a1.237,1.237,0,0,0-.448-1.6l-6.848-4.409a1.237,1.237,0,0,0-1.53.173l-2.769,2.77a1.229,1.229,0,0,1-1.029.353,14.474,14.474,0,0,1-8.217-4.37Z" transform="translate(-0.997 -0.023)" fill="#fab250"/>
      <path id="Shape-2" data-name="Shape" d="M39.748,22.984a1.237,1.237,0,0,1-1.237-1.237,9.285,9.285,0,0,0-9.275-9.275,1.237,1.237,0,0,1,0-2.473A11.761,11.761,0,0,1,40.984,21.748,1.237,1.237,0,0,1,39.748,22.984Z" transform="translate(-11.304 -3.817)" fill="#fab250"/>
      <path id="Shape-3" data-name="Shape" d="M45.931,19.168a1.237,1.237,0,0,1-1.237-1.237A15.475,15.475,0,0,0,29.237,2.473a1.237,1.237,0,0,1,0-2.473A17.951,17.951,0,0,1,47.168,17.931a1.237,1.237,0,0,1-1.237,1.237Z" transform="translate(-11.304)" fill="#fab250"/>
    </g>
  </g>
</svg>
