<svg xmlns="http://www.w3.org/2000/svg" width="43.422" height="43.422" viewBox="0 0 43.422 43.422">
  <g id="instagram_1_" data-name="instagram (1)" transform="translate(98.014 98.014)">
    <path id="Path_519" data-name="Path 519" d="M224.655,215.827A8.827,8.827,0,1,1,215.827,207,8.827,8.827,0,0,1,224.655,215.827Zm0,0" transform="translate(-292.13 -292.13)" fill="#fab250"/>
    <path id="Path_520" data-name="Path 520" d="M177.84,141.581a8.77,8.77,0,0,0-5.026-5.026,14.653,14.653,0,0,0-4.917-.911c-2.793-.127-3.63-.155-10.7-.155s-7.909.027-10.7.154a14.662,14.662,0,0,0-4.917.912,8.774,8.774,0,0,0-5.027,5.026,14.658,14.658,0,0,0-.911,4.918c-.127,2.792-.155,3.63-.155,10.7s.027,7.908.155,10.7a14.653,14.653,0,0,0,.911,4.917,8.77,8.77,0,0,0,5.026,5.026,14.634,14.634,0,0,0,4.918.912c2.792.127,3.629.154,10.7.154s7.91-.027,10.7-.154a14.634,14.634,0,0,0,4.918-.912,8.77,8.77,0,0,0,5.026-5.026,14.665,14.665,0,0,0,.912-4.917c.127-2.793.154-3.63.154-10.7s-.027-7.909-.154-10.7a14.634,14.634,0,0,0-.912-4.918ZM157.2,170.8a13.6,13.6,0,1,1,13.6-13.6A13.6,13.6,0,0,1,157.2,170.8Zm14.136-24.557a3.178,3.178,0,1,1,3.178-3.178A3.178,3.178,0,0,1,171.332,146.241Zm0,0" transform="translate(-233.498 -233.502)" fill="#fab250"/>
    <path id="Path_521" data-name="Path 521" d="M4.053,0A4.053,4.053,0,1,0,8.107,4.053,4.054,4.054,0,0,0,4.053,0ZM6.367,5.013a1.708,1.708,0,0,1-.108.565,1.19,1.19,0,0,1-.681.681,1.709,1.709,0,0,1-.565.108c-.248.011-.327.014-.96.014s-.711,0-.96-.014a1.709,1.709,0,0,1-.565-.108,1.19,1.19,0,0,1-.681-.681,1.707,1.707,0,0,1-.108-.565c-.011-.248-.014-.328-.014-.96s0-.711.014-.96a1.708,1.708,0,0,1,.108-.565,1.191,1.191,0,0,1,.681-.681,1.709,1.709,0,0,1,.565-.108c.248-.011.327-.014.96-.014s.711,0,.96.014a1.71,1.71,0,0,1,.565.108,1.19,1.19,0,0,1,.681.681,1.707,1.707,0,0,1,.108.565c.011.248.014.327.014.96S6.378,4.765,6.367,5.013Zm0,0" transform="translate(-80.356 -80.356)" fill="#fab250"/>
  </g>
</svg>
