<svg xmlns="http://www.w3.org/2000/svg" width="499.002" height="30.294" viewBox="0 0 499.002 30.294">
  <g id="OBJECTS" transform="translate(-388.2 -104.7)">
    <g id="Group_271" data-name="Group 271" transform="translate(388.2 104.7)">
      <g id="Group_270" data-name="Group 270">
        <g id="Group_266" data-name="Group 266" transform="translate(0 14.975)">
          <path id="Path_511" data-name="Path 511" d="M561.458,116.949,388.2,115.5Z" transform="translate(-388.2 -113.085)" fill="#fab250"/>
          <path id="Path_512" data-name="Path 512" d="M561.458,118.992c-14.492-.161-28.823-.644-43.314-.805H501.88c-1.771.161-3.543.644-5.475.966a20.406,20.406,0,0,1-5.475.644c-1.771,0-3.542,0-5.475-.161-3.542-.161-7.246-.322-10.788-.644-7.246-.644-14.492-.805-21.577-.966l-21.577-.483c-14.492-.322-28.823-.483-43.314-.644v-1.771c14.492.161,28.823.161,43.314,0l21.577-.161q10.869,0,21.738-.483c3.543-.161,7.246-.322,10.788-.483h5.475a22.042,22.042,0,0,1,5.475.644,30,30,0,0,0,5.475,1.127c1.771.161,3.542.161,5.475.161,3.542.161,7.246.161,10.788.161,14.492.161,28.823-.161,43.314,0Z" transform="translate(-388.2 -114)" fill="#fab250"/>
        </g>
        <g id="Group_267" data-name="Group 267" transform="translate(325.583 14.331)">
          <path id="Path_513" data-name="Path 513" d="M590.4,116.249,763.658,114.8Z" transform="translate(-590.4 -112.868)" fill="#fab250"/>
          <path id="Path_514" data-name="Path 514" d="M590.4,115.693c14.492-.161,28.823.161,43.314,0,3.542,0,7.246-.161,10.788-.161,1.771,0,3.543,0,5.475-.161a36.833,36.833,0,0,0,5.475-1.127,20.4,20.4,0,0,1,5.475-.644H666.4c3.542,0,7.246.161,10.788.483,7.246.483,14.492.483,21.738.483l21.577.161h43.314V116.5c-14.492.161-28.823.322-43.314.644l-21.577.483c-7.246.161-14.492.322-21.577.966-3.542.322-7.246.483-10.788.644-1.771,0-3.542,0-5.475.161a22.044,22.044,0,0,1-5.475-.644,20.544,20.544,0,0,0-5.475-.966H633.875c-14.492.161-28.823.644-43.314.805Z" transform="translate(-590.4 -113.6)" fill="#fab250"/>
        </g>
        <g id="Group_269" data-name="Group 269" transform="translate(172.08)">
          <g id="Group_268" data-name="Group 268" transform="translate(0 5.193)">
            <path id="Path_515" data-name="Path 515" d="M534.6,120.444a27.379,27.379,0,0,0,16.585,9.339,28.754,28.754,0,0,0,9.822.161,28.009,28.009,0,0,0,9.339-3.22c2.9-1.61,5.475-3.542,8.051-5.314a66.584,66.584,0,0,1,8.051-4.831A46.267,46.267,0,0,1,604,111.266a27.17,27.17,0,0,1,8.856.805,14.176,14.176,0,0,1,3.865,1.771,13.09,13.09,0,0,1,3.06,2.9,8.28,8.28,0,0,1-3.865,13.2,6.393,6.393,0,0,1-3.865.161,5.284,5.284,0,0,1-2.9-2.415,4.992,4.992,0,0,1-.644-3.7,7.486,7.486,0,0,1,2.093-3.381,5.5,5.5,0,0,1,3.865-1.127,4.012,4.012,0,0,1,3.22,1.932,4.085,4.085,0,0,1,.322,1.932,2.738,2.738,0,0,1-.966,1.61,2.357,2.357,0,0,1-3.542-.966l-.483.161a3.038,3.038,0,0,0,1.932,1.771,3.575,3.575,0,0,0,2.576-.161,3.329,3.329,0,0,0,1.61-2.254,5.29,5.29,0,0,0-.161-2.737,4.452,4.452,0,0,0-1.771-2.093,7.115,7.115,0,0,0-2.576-.966A7.331,7.331,0,0,0,609.474,119a7.75,7.75,0,0,0-3.059,4.348,8.046,8.046,0,0,0,.644,5.475,7.892,7.892,0,0,0,4.187,3.7,9.086,9.086,0,0,0,5.475.161,10.579,10.579,0,0,0,4.67-2.737,10.334,10.334,0,0,0,1.61-2.093,16.24,16.24,0,0,0,1.127-2.415,10.574,10.574,0,0,0,.322-5.475,12.074,12.074,0,0,0-.805-2.576,17.615,17.615,0,0,0-1.288-2.415,13.513,13.513,0,0,0-3.7-3.7,17.841,17.841,0,0,0-4.67-2.254,26.7,26.7,0,0,0-9.983-.966,50.333,50.333,0,0,0-18.678,5.636,54.087,54.087,0,0,0-8.212,5.153c-2.576,1.771-5.153,3.7-7.729,5.314a23.193,23.193,0,0,1-8.373,3.22,29.127,29.127,0,0,1-9.178.322,27.728,27.728,0,0,1-16.424-7.89Z" transform="translate(-470.947 -107.925)" fill="#fab250"/>
            <path id="Path_516" data-name="Path 516" d="M585.129,120.444a27.38,27.38,0,0,1-16.585,9.339,28.754,28.754,0,0,1-9.822.161,28.009,28.009,0,0,1-9.339-3.22c-2.9-1.61-5.475-3.542-8.051-5.314a66.58,66.58,0,0,0-8.051-4.831,46.267,46.267,0,0,0-17.551-5.314,27.17,27.17,0,0,0-8.856.805,14.179,14.179,0,0,0-3.864,1.771,13.087,13.087,0,0,0-3.059,2.9,8.28,8.28,0,0,0,3.864,13.2,6.392,6.392,0,0,0,3.864.161,5.284,5.284,0,0,0,2.9-2.415,4.993,4.993,0,0,0,.644-3.7,7.486,7.486,0,0,0-2.093-3.381,5.5,5.5,0,0,0-3.865-1.127,4.011,4.011,0,0,0-3.22,1.932,4.084,4.084,0,0,0-.322,1.932,2.738,2.738,0,0,0,.966,1.61,2.357,2.357,0,0,0,3.542-.966l.483.161a3.038,3.038,0,0,1-1.932,1.771,3.575,3.575,0,0,1-2.576-.161,3.329,3.329,0,0,1-1.61-2.254,5.287,5.287,0,0,1,.161-2.737,4.452,4.452,0,0,1,1.771-2.093,7.114,7.114,0,0,1,2.576-.966A7.331,7.331,0,0,1,510.255,119a7.749,7.749,0,0,1,3.059,4.348,8.046,8.046,0,0,1-.644,5.475,7.891,7.891,0,0,1-4.187,3.7,9.086,9.086,0,0,1-5.475.161,10.578,10.578,0,0,1-4.67-2.737,10.337,10.337,0,0,1-1.61-2.093,16.261,16.261,0,0,1-1.127-2.415,10.575,10.575,0,0,1-.322-5.475,12.069,12.069,0,0,1,.805-2.576,17.611,17.611,0,0,1,1.288-2.415,13.513,13.513,0,0,1,3.7-3.7,17.839,17.839,0,0,1,4.67-2.254,26.7,26.7,0,0,1,9.983-.966,50.332,50.332,0,0,1,18.678,5.636,54.091,54.091,0,0,1,8.212,5.153c2.576,1.771,5.153,3.7,7.729,5.314a23.193,23.193,0,0,0,8.373,3.22,29.128,29.128,0,0,0,9.178.322,27.727,27.727,0,0,0,16.424-7.89Z" transform="translate(-495.069 -107.925)" fill="#fab250"/>
          </g>
          <path id="Path_517" data-name="Path 517" d="M555.234,115.81a11.789,11.789,0,0,1-2.576,6.924,8.406,8.406,0,0,1-6.441,3.22,8.16,8.16,0,0,1-6.441-3.22,11.79,11.79,0,0,1-2.576-6.924,11.6,11.6,0,0,1,2.093-7.246,9.2,9.2,0,0,1,6.924-3.864,7.268,7.268,0,0,1,4.026,1.127,9.36,9.36,0,0,1,2.9,2.737A10.92,10.92,0,0,1,555.234,115.81Zm-1.61,0a9.706,9.706,0,0,0-2.254-5.958,6.441,6.441,0,0,0-10.305,0,10.784,10.784,0,0,0-2.254,5.958,10.607,10.607,0,0,0,1.771,6.28,7.832,7.832,0,0,0,5.636,3.22,7.329,7.329,0,0,0,3.22-.805,6.457,6.457,0,0,0,2.415-2.254A9.386,9.386,0,0,0,553.624,115.81Z" transform="translate(-469.36 -104.7)" fill="#fab250"/>
        </g>
      </g>
    </g>
  </g>
</svg>
