<svg xmlns="http://www.w3.org/2000/svg" width="114.065" height="114.065" viewBox="0 0 114.065 114.065">
  <g id="Outline" transform="translate(-2 -2)">
    <path id="Path_361" data-name="Path 361" d="M114.164,57.428a1.9,1.9,0,0,0-1.9,1.9V78.34a5.7,5.7,0,0,1-5.7,5.7H13.407a7.6,7.6,0,0,1-7.6-7.6V17.505a5.7,5.7,0,0,1,5.7-5.7H43.824a1.9,1.9,0,1,0,0-3.8H11.505A9.517,9.517,0,0,0,2,17.505V76.439A11.418,11.418,0,0,0,13.407,87.846H37.256A18.547,18.547,0,0,1,27.25,97.37l-4.7,1.882H19.11a5.7,5.7,0,0,0-5.7,5.7v3.8a1.9,1.9,0,0,0,1.9,1.9H45.725a1.9,1.9,0,1,0,0-3.8H17.209v-1.9a1.9,1.9,0,0,1,1.9-1.9H98.956a1.9,1.9,0,0,1,1.9,1.9v1.9H53.329a1.9,1.9,0,1,0,0,3.8h49.428a1.9,1.9,0,0,0,1.9-1.9v-3.8a5.7,5.7,0,0,0-5.7-5.7H95.518l-4.7-1.882A18.547,18.547,0,0,1,80.81,87.846h25.75a9.517,9.517,0,0,0,9.505-9.505V59.329A1.9,1.9,0,0,0,114.164,57.428ZM86.089,99.252H31.976a22.325,22.325,0,0,0,9.414-11.407H76.675A22.325,22.325,0,0,0,86.089,99.252Z" transform="translate(0 5.407)" fill="#fab250"/>
    <path id="Path_362" data-name="Path 362" d="M75.022,8H38.9a1.9,1.9,0,1,0,0,3.8H75.022a5.7,5.7,0,0,1,5.7,5.7v34.22a1.9,1.9,0,1,0,3.8,0V17.505A9.517,9.517,0,0,0,75.022,8Z" transform="translate(31.538 5.407)" fill="#fab250"/>
    <path id="Path_363" data-name="Path 363" d="M23.724,24.146,19.211,36.18a5.169,5.169,0,0,0,9.272,4.475l3.8-6.336h2.726a1.9,1.9,0,1,0,3.8,0v-1.9a1.9,1.9,0,0,0-1.9-1.9h-5.7a1.9,1.9,0,0,0-1.629.922l-4.356,7.253a1.368,1.368,0,0,1-2.452-1.184L26.9,26.5,37.07,24.813H51.453L60.438,32a1.9,1.9,0,0,0,1.458.4l9.043-1.293a1.823,1.823,0,0,1,1.46.432,1.8,1.8,0,0,1,.633,1.386,1.836,1.836,0,0,1-1.606,1.819L60.141,36.153l-7.034-4.224a1.9,1.9,0,0,0-2.888,1.629v6.464H36.912a1.9,1.9,0,0,0-1.874,1.587l-1.684,10.1-8.365,1.616H17.9a1.9,1.9,0,0,0-1.9,1.9V68.538a1.9,1.9,0,0,0,1.9,1.9,9.505,9.505,0,0,0,8.819-6.006l16.085-1.608a1.9,1.9,0,0,0,1.511-1.042l4.852-9.705L54.212,54.6l1.741,10.456a1.9,1.9,0,0,0,1.871,1.584h5.7a5.715,5.715,0,0,1,5.378,3.8H57.824a1.9,1.9,0,1,0,0,3.8H71.132a1.9,1.9,0,0,0,1.9-1.9,9.505,9.505,0,0,0-6.038-8.829L65.417,49.318a1.9,1.9,0,0,0-.835-1.373l-10.561-7.04V36.914l4.724,2.835A1.886,1.886,0,0,0,59.961,40L71.9,38.514a5.636,5.636,0,1,0-1.5-11.173l-8.23,1.175-8.863-7.091a1.9,1.9,0,0,0-1.188-.414H51.064a7.527,7.527,0,0,0,1.057-3.8V3.9A1.9,1.9,0,0,0,50.22,2h-3.8a9.517,9.517,0,0,0-9.505,9.505v5.7a7.526,7.526,0,0,0,1.057,3.8H36.912a1.711,1.711,0,0,0-.312.027l-11.407,1.9a1.9,1.9,0,0,0-1.47,1.207ZM23.6,60.934a5.715,5.715,0,0,1-3.8,5.378v-9.18h3.8Zm39.489,1.9h-3.66L57.8,53.016a1.9,1.9,0,0,0-1.025-1.388l-7.6-3.8a1.9,1.9,0,0,0-2.551.852L41.385,59.147,27.407,60.554v-3.8l7.964-1.54a1.9,1.9,0,0,0,1.521-1.553l1.631-9.834H51.55l10.192,6.794ZM46.417,5.8h1.9V9.6H41.039A5.715,5.715,0,0,1,46.417,5.8Zm-5.7,11.407v-3.8h7.6v3.8a3.8,3.8,0,1,1-7.6,0Z" transform="translate(12.615)" fill="#fab250"/>
    <path id="Path_364" data-name="Path 364" d="M31.011,40a5.7,5.7,0,0,0-5.353,3.8H13.9a1.9,1.9,0,1,0,0,3.8H25.657a5.669,5.669,0,0,0,10.707,0h53.58a1.9,1.9,0,0,0,0-3.8H36.364A5.7,5.7,0,0,0,31.011,40Zm0,7.6a1.9,1.9,0,1,1,1.9-1.9A1.9,1.9,0,0,1,31.011,47.6Z" transform="translate(9.011 34.241)" fill="#fab250"/>
    <path id="Path_365" data-name="Path 365" d="M61.505,55.22a1.9,1.9,0,0,0,1.9-1.9V22.9a1.9,1.9,0,0,0-1.9-1.9H53.9A1.9,1.9,0,0,0,52,22.9V53.319a1.9,1.9,0,0,0,1.9,1.9ZM55.8,40.011h3.8v3.8H55.8Zm3.8-3.8H55.8v-3.8h3.8Zm0,15.209H55.8v-3.8h3.8ZM55.8,24.8h3.8v3.8H55.8Z" transform="translate(45.055 17.121)" fill="#fab250"/>
    <path id="Path_366" data-name="Path 366" d="M7.9,22.8h7.6a1.9,1.9,0,0,0,0-3.8H7.9a1.9,1.9,0,1,0,0,3.8Z" transform="translate(3.604 15.319)" fill="#fab250"/>
    <path id="Path_367" data-name="Path 367" d="M7.9,26.8h7.6a1.9,1.9,0,0,0,0-3.8H7.9a1.9,1.9,0,0,0,0,3.8Z" transform="translate(3.604 18.923)" fill="#fab250"/>
    <path id="Path_368" data-name="Path 368" d="M17.407,28.9a1.9,1.9,0,0,0-1.9-1.9H7.9a1.9,1.9,0,0,0,0,3.8h7.6A1.9,1.9,0,0,0,17.407,28.9Z" transform="translate(3.604 22.527)" fill="#fab250"/>
    <path id="Path_369" data-name="Path 369" d="M15.505,32.9A1.9,1.9,0,0,0,13.6,31H7.9a1.9,1.9,0,1,0,0,3.8h5.7A1.9,1.9,0,0,0,15.505,32.9Z" transform="translate(3.604 26.132)" fill="#fab250"/>
    <path id="Path_370" data-name="Path 370" d="M7.9,35a1.9,1.9,0,1,0,0,3.8h3.8a1.9,1.9,0,1,0,0-3.8Z" transform="translate(3.604 29.736)" fill="#fab250"/>
  </g>
</svg>
