<svg xmlns="http://www.w3.org/2000/svg" width="139.967" height="123.858" viewBox="0 0 139.967 123.858">
  <g id="vector" transform="translate(0 -29.327)">
    <path id="Path_357" data-name="Path 357" d="M238.623,445.761a2.06,2.06,0,0,1-2.06-2.06v-5.477a1.424,1.424,0,0,0-1.423-1.423h-5.53a1.424,1.424,0,0,0-1.423,1.423V443.7a2.06,2.06,0,0,1-4.12,0v-5.477a5.549,5.549,0,0,1,5.542-5.542h5.53a5.549,5.549,0,0,1,5.542,5.542V443.7A2.06,2.06,0,0,1,238.623,445.761Z" transform="translate(-162.529 -292.577)" fill="#fab250"/>
    <g id="Group_84" data-name="Group 84" transform="translate(0 29.327)">
      <path id="Path_358" data-name="Path 358" d="M190.564,147.984a2.06,2.06,0,1,0-3.311,2.451l10.229,13.815a4.335,4.335,0,0,1-.187,5.269L186.274,182.1H155.245l-11.02-12.576a4.335,4.335,0,0,1-.187-5.269l20.307-27.427v15.628a10.5,10.5,0,1,0,13.1.223v-15.48l4.523,6.109a2.06,2.06,0,1,0,3.311-2.451l-8.835-11.933a6.95,6.95,0,0,0-11.376,0L140.727,161.8a8.475,8.475,0,0,0,.4,10.436l9.19,10.488a6.727,6.727,0,0,0-3.89,6.092v9.827a6.731,6.731,0,0,0,4.719,6.415l.562,16.235a2.06,2.06,0,0,0,2.057,1.989h.073a2.06,2.06,0,0,0,1.987-2.13l-.547-15.789h31.237l-.547,15.789a2.06,2.06,0,0,0,1.987,2.13h.072a2.06,2.06,0,0,0,2.057-1.989l.565-16.329a6.73,6.73,0,0,0,4.441-6.321v-9.827a6.727,6.727,0,0,0-3.89-6.092l9.19-10.488a8.475,8.475,0,0,0,.4-10.436Zm-19.8-17.9a2.946,2.946,0,0,1,2.377,1.288l.193.26v22.08a2.06,2.06,0,0,0,.927,1.721,6.372,6.372,0,1,1-6.787-.133,2.06,2.06,0,0,0,.995-1.763V131.269A2.917,2.917,0,0,1,170.76,130.081Zm20.213,68.56a2.6,2.6,0,0,1-2.6,2.6H153.146a2.6,2.6,0,0,1-2.6-2.6v-9.827a2.6,2.6,0,0,1,2.6-2.6h35.228a2.6,2.6,0,0,1,2.6,2.6Z" transform="translate(-100.914 -99.422)" fill="#fab250"/>
      <path id="Path_359" data-name="Path 359" d="M77.821,151.256a41.147,41.147,0,0,1,5.3-18.578,2.06,2.06,0,0,0-3.583-2.033,45.273,45.273,0,0,0-5.838,20.59,8.216,8.216,0,1,0,4.123.02Zm-2.1,12.038a4.1,4.1,0,1,1,4.1-4.1A4.1,4.1,0,0,1,75.721,163.294Z" transform="translate(-48.966 -102.062)" fill="#fab250"/>
      <path id="Path_360" data-name="Path 360" d="M135.605,29.327h-6.619a4.366,4.366,0,0,0-4.361,4.361v1.25H77.654v-1.25a4.366,4.366,0,0,0-4.361-4.361H66.674a4.366,4.366,0,0,0-4.361,4.361v1.25H15.342v-1.25a4.366,4.366,0,0,0-4.361-4.361H4.361A4.366,4.366,0,0,0,0,33.688v6.619a4.366,4.366,0,0,0,4.361,4.361h6.619a4.366,4.366,0,0,0,4.361-4.361v-1.25H51.1A45.374,45.374,0,0,0,35.98,50.316a2.06,2.06,0,0,0,3.092,2.722,41.129,41.129,0,0,1,23.24-13.262v.533a4.366,4.366,0,0,0,4.361,4.361h6.619a4.366,4.366,0,0,0,4.361-4.361v-.533a41.258,41.258,0,0,1,33.46,38.745,8.215,8.215,0,1,0,4.121-.019A45.441,45.441,0,0,0,88.868,39.058h35.757v1.25a4.366,4.366,0,0,0,4.361,4.361h6.619a4.366,4.366,0,0,0,4.361-4.361v-6.62a4.366,4.366,0,0,0-4.361-4.361ZM11.222,40.308a.242.242,0,0,1-.242.242H4.361a.242.242,0,0,1-.242-.242V33.688a.242.242,0,0,1,.242-.242h6.619a.242.242,0,0,1,.242.242ZM117.307,86.463a4.1,4.1,0,1,1-4.1-4.1A4.1,4.1,0,0,1,117.307,86.463ZM73.535,40.308a.242.242,0,0,1-.242.242H66.674a.242.242,0,0,1-.242-.242V33.688a.242.242,0,0,1,.242-.242h6.619a.242.242,0,0,1,.242.242Zm62.312,0a.242.242,0,0,1-.242.242h-6.619a.242.242,0,0,1-.242-.242V33.688a.242.242,0,0,1,.242-.242h6.619a.242.242,0,0,1,.242.242Z" transform="translate(0 -29.327)" fill="#fab250"/>
    </g>
  </g>
</svg>
