<svg id="XMLID_816_" xmlns="http://www.w3.org/2000/svg" width="126.001" height="126.001" viewBox="0 0 126.001 126.001">
  <g id="XMLID_1663_">
    <g id="XMLID_709_">
      <path id="XMLID_710_" d="M233.391,364.99a2.462,2.462,0,1,0,1.74.721A2.479,2.479,0,0,0,233.391,364.99Z" transform="translate(-174.099 -275.168)" fill="#fab250"/>
      <path id="XMLID_734_" d="M424.231,335.12a2.462,2.462,0,1,0,1.74.721A2.48,2.48,0,0,0,424.231,335.12Z" transform="translate(-317.974 -252.649)" fill="#fab250"/>
      <path id="XMLID_735_" d="M128.4,287a2.462,2.462,0,1,0,1.74.721A2.477,2.477,0,0,0,128.4,287Z" transform="translate(-94.946 -216.371)" fill="#fab250"/>
      <path id="XMLID_744_" d="M126,26.71a2.461,2.461,0,0,0-2.461-2.461h-3.79a26.589,26.589,0,0,0-2.064-4.985l2.679-2.679a2.461,2.461,0,0,0,0-3.48l-7.47-7.47a2.461,2.461,0,0,0-3.481,0l-2.679,2.679a26.605,26.605,0,0,0-4.985-2.064V2.461A2.461,2.461,0,0,0,99.29,0H88.726a2.461,2.461,0,0,0-2.461,2.461v3.8a26.6,26.6,0,0,0-4.974,2.065L78.6,5.635a2.461,2.461,0,0,0-3.481,0l-7.47,7.47a2.457,2.457,0,0,0-.684,2.152H9.852A9.864,9.864,0,0,0,0,25.11V93.016a9.863,9.863,0,0,0,9.852,9.852h39.1v8.367h-5.9A8.878,8.878,0,0,0,34.19,120.1v3.436A2.461,2.461,0,0,0,36.65,126H81.932a2.461,2.461,0,0,0,2.461-2.461V120.1a8.878,8.878,0,0,0-8.868-8.868h-5.9v-8.367h39.081a9.863,9.863,0,0,0,9.852-9.852V52.684l1.805-1.805a2.461,2.461,0,0,0,0-3.48l-2.69-2.689a26.6,26.6,0,0,0,2.065-4.974h3.8A2.461,2.461,0,0,0,126,37.275ZM79.471,120.1v.976H39.111V120.1a3.951,3.951,0,0,1,3.946-3.946H75.525A3.951,3.951,0,0,1,79.471,120.1Zm-14.766-8.868H53.877v-8.367H64.705Zm48.933-18.219a4.936,4.936,0,0,1-4.93,4.93H9.852a4.936,4.936,0,0,1-4.93-4.93V87.393H96.413a2.461,2.461,0,1,0,0-4.922H4.922V75.551H23.707a2.461,2.461,0,0,0,0-4.922H4.922V25.11a4.936,4.936,0,0,1,4.93-4.93H69.893a26.608,26.608,0,0,0-1.6,4.07h-3.82a2.461,2.461,0,0,0-2.461,2.461V37.274a2.461,2.461,0,0,0,2.461,2.461h3.829a26.623,26.623,0,0,0,2.055,4.954l-2.71,2.71a2.461,2.461,0,0,0,0,3.48l7.47,7.47a2.461,2.461,0,0,0,3.481,0l2.71-2.71a26.6,26.6,0,0,0,4.954,2.055v3.829a2.461,2.461,0,0,0,2.461,2.461H99.291a2.461,2.461,0,0,0,2.461-2.461V57.7a26.6,26.6,0,0,0,4.965-2.053l2.7,2.7a2.461,2.461,0,0,0,3.48,0l.743-.743v35.41Zm7.44-58.2h-3.238a2.461,2.461,0,0,0-2.4,1.929,21.743,21.743,0,0,1-2.92,7.033,2.463,2.463,0,0,0,.332,3.069l2.295,2.295-3.99,3.989-2.3-2.3a2.463,2.463,0,0,0-2.842-.461,2.424,2.424,0,0,0-.222.126A21.743,21.743,0,0,1,98.761,53.4a2.461,2.461,0,0,0-1.932,2.4v3.262H91.187V55.794a2.461,2.461,0,0,0-1.929-2.4,21.747,21.747,0,0,1-7.019-2.911,2.461,2.461,0,0,0-3.065.334l-2.313,2.314-3.989-3.99,2.313-2.313a2.463,2.463,0,0,0,.332-3.069,21.741,21.741,0,0,1-2.908-7.014,2.461,2.461,0,0,0-2.4-1.929H66.938V29.171H70.2a2.462,2.462,0,0,0,2.4-1.932,21.74,21.74,0,0,1,2.9-7.023,2.463,2.463,0,0,0-.332-3.069l-2.3-2.3,3.99-3.989,2.295,2.295a2.464,2.464,0,0,0,3.1.31,21.733,21.733,0,0,1,7-2.9,2.461,2.461,0,0,0,1.929-2.4V4.922H96.83V8.153a2.461,2.461,0,0,0,1.932,2.4,21.744,21.744,0,0,1,7.045,2.917,2.463,2.463,0,0,0,3.065-.334l2.283-2.283,3.989,3.99-2.283,2.283a2.462,2.462,0,0,0-.331,3.07,21.731,21.731,0,0,1,2.914,7.041,2.461,2.461,0,0,0,2.4,1.932h3.231v5.642Z" fill="#fab250"/>
      <path id="XMLID_999_" d="M335.258,68a15.258,15.258,0,1,0,15.258,15.258A15.275,15.275,0,0,0,335.258,68Zm0,25.594a10.336,10.336,0,1,1,10.336-10.336A10.348,10.348,0,0,1,335.258,93.594Z" transform="translate(-241.25 -51.266)" fill="#fab250"/>
      <path id="XMLID_1012_" d="M156.131,187.22a2.462,2.462,0,1,0,1.74.721A2.475,2.475,0,0,0,156.131,187.22Z" transform="translate(-115.853 -141.146)" fill="#fab250"/>
      <path id="XMLID_1094_" d="M123.773,133.214a2.46,2.46,0,0,0-.246-1.867l-4.155-7.2a2.461,2.461,0,0,0-3.362-.9l-2.367,1.367a15.565,15.565,0,0,0-2.462-1.424v-2.731A2.461,2.461,0,0,0,108.72,118h-8.31a2.461,2.461,0,0,0-2.461,2.461v2.731a15.583,15.583,0,0,0-2.462,1.424l-2.367-1.367a2.461,2.461,0,0,0-3.362.9l-4.155,7.2a2.461,2.461,0,0,0,.9,3.362l2.368,1.367c-.042.472-.064.947-.064,1.421s.021.949.064,1.421L86.5,140.285a2.461,2.461,0,0,0-.9,3.362l4.155,7.2a2.461,2.461,0,0,0,3.362.9l2.367-1.367a15.565,15.565,0,0,0,2.462,1.424v2.731a2.461,2.461,0,0,0,2.461,2.461h8.31a2.461,2.461,0,0,0,2.461-2.461V151.8a15.583,15.583,0,0,0,2.462-1.424l2.367,1.367a2.461,2.461,0,0,0,3.362-.9l4.155-7.2a2.461,2.461,0,0,0-.9-3.362l-2.368-1.367c.043-.472.064-.947.064-1.421s-.021-.949-.064-1.421l2.368-1.367A2.463,2.463,0,0,0,123.773,133.214Zm-8.6,2.065a10.941,10.941,0,0,1,0,4.436,2.461,2.461,0,0,0,1.179,2.632l1.682.971-1.694,2.934-1.685-.973a2.461,2.461,0,0,0-2.871.3,10.756,10.756,0,0,1-3.833,2.216,2.461,2.461,0,0,0-1.692,2.338v1.942H102.87V150.13a2.461,2.461,0,0,0-1.692-2.338,10.758,10.758,0,0,1-3.833-2.216,2.46,2.46,0,0,0-2.871-.3l-1.685.973L91.1,143.317l1.682-.971a2.461,2.461,0,0,0,1.179-2.631,10.952,10.952,0,0,1,0-4.436,2.461,2.461,0,0,0-1.179-2.632l-1.682-.971,1.694-2.934,1.685.973a2.46,2.46,0,0,0,2.871-.3,10.755,10.755,0,0,1,3.833-2.216,2.461,2.461,0,0,0,1.692-2.338v-1.942h3.388v1.942a2.461,2.461,0,0,0,1.692,2.338,10.757,10.757,0,0,1,3.833,2.216,2.461,2.461,0,0,0,2.871.3l1.685-.973,1.694,2.934-1.682.971A2.461,2.461,0,0,0,115.173,135.279Z" transform="translate(-64.287 -88.961)" fill="#fab250"/>
    </g>
  </g>
</svg>
