<svg xmlns="http://www.w3.org/2000/svg" width="131.508" height="133.7" viewBox="0 0 131.508 133.7">
  <g id="bullhorn" transform="translate(-2 -1)">
    <path id="Path_377" data-name="Path 377" d="M78.713,80.219H74.329V58.74a2.192,2.192,0,1,0-4.384,0v21.48H12.959V36.384H31.195a2.192,2.192,0,0,0,0-4.384H10.767a2.192,2.192,0,0,0-2.192,2.192V80.219H4.192A2.192,2.192,0,0,0,2,82.411v4.384A10.959,10.959,0,0,0,12.959,97.754H69.946A10.959,10.959,0,0,0,80.9,86.795V82.411A2.192,2.192,0,0,0,78.713,80.219Zm-2.192,6.575a6.575,6.575,0,0,1-6.575,6.575H65.562V91.178a2.192,2.192,0,1,0-4.384,0V93.37H21.726V91.178a2.192,2.192,0,1,0-4.384,0V93.37H12.959a6.575,6.575,0,0,1-6.575-6.575V84.6H76.521Z" transform="translate(0 36.946)" fill="#fab250"/>
    <path id="Path_378" data-name="Path 378" d="M59.959,10.384h4.384a2.192,2.192,0,1,0,0-4.384H59.959a6.575,6.575,0,0,0-6.575,6.575v2.192H51.192a2.192,2.192,0,1,0,0,4.384h2.192v6.575a2.192,2.192,0,0,0,4.384,0V19.151h2.192a2.192,2.192,0,1,0,0-4.384H57.767V12.575A2.192,2.192,0,0,1,59.959,10.384Z" transform="translate(56.014 5.959)" fill="#fab250"/>
    <path id="Path_379" data-name="Path 379" d="M76.877,2h-26.3A6.575,6.575,0,0,0,44,8.575v4.384a2.192,2.192,0,1,0,4.384,0V8.575a2.192,2.192,0,0,1,2.192-2.192h26.3a2.192,2.192,0,0,1,2.192,2.192v26.3a2.192,2.192,0,0,1-2.192,2.192h-26.3a2.192,2.192,0,0,1-2.192-2.192V21.726a2.192,2.192,0,0,0-4.384,0V34.877a6.575,6.575,0,0,0,6.575,6.575h26.3a6.575,6.575,0,0,0,6.575-6.575V8.575A6.575,6.575,0,0,0,76.877,2Z" transform="translate(50.055 1.192)" fill="#fab250"/>
    <path id="Path_380" data-name="Path 380" d="M49,46.767A8.767,8.767,0,1,0,57.767,38,8.767,8.767,0,0,0,49,46.767Zm13.151,0a4.384,4.384,0,1,1-4.384-4.384A4.384,4.384,0,0,1,62.151,46.767Z" transform="translate(56.014 44.096)" fill="#fab250"/>
    <path id="Path_381" data-name="Path 381" d="M76.877,33h-26.3A6.575,6.575,0,0,0,44,39.575v26.3a6.575,6.575,0,0,0,6.575,6.575h26.3a6.575,6.575,0,0,0,6.575-6.575V61.493a2.192,2.192,0,1,0-4.384,0v4.384a2.192,2.192,0,0,1-2.192,2.192h-26.3a2.192,2.192,0,0,1-2.192-2.192v-26.3a2.192,2.192,0,0,1,2.192-2.192h26.3a2.192,2.192,0,0,1,2.192,2.192V52.726a2.192,2.192,0,0,0,4.384,0V39.575A6.575,6.575,0,0,0,76.877,33Z" transform="translate(50.055 38.137)" fill="#fab250"/>
    <path id="Path_382" data-name="Path 382" d="M25.03,23.2a2.18,2.18,0,0,0,2.148.088l13.151-6.575a2.192,2.192,0,0,0,0-3.9L27.178,6.237A2.192,2.192,0,0,0,24,8.188V21.339A2.192,2.192,0,0,0,25.03,23.2Zm3.353-11.463,6.049,3.025-6.049,3.025Z" transform="translate(26.219 5.963)" fill="#fab250"/>
    <path id="Path_383" data-name="Path 383" d="M37.726,40.452A19.726,19.726,0,1,0,18,20.726,19.726,19.726,0,0,0,37.726,40.452Zm0-35.069A15.343,15.343,0,1,1,22.384,20.726,15.343,15.343,0,0,1,37.726,5.384Z" transform="translate(19.069)" fill="#fab250"/>
    <path id="Path_384" data-name="Path 384" d="M38.192,30.151a2.192,2.192,0,0,0,1.753-.877l6.575-8.767a2.192,2.192,0,1,0-3.507-2.63l-6.575,8.767a2.192,2.192,0,0,0,1.753,3.507Z" transform="translate(40.521 19.069)" fill="#fab250"/>
    <path id="Path_385" data-name="Path 385" d="M39.438,32.082a2.192,2.192,0,0,0,3.069.438l8.767-6.575a2.192,2.192,0,1,0-2.63-3.507l-8.767,6.575a2.192,2.192,0,0,0-.438,3.069Z" transform="translate(44.096 25.028)" fill="#fab250"/>
    <path id="Path_386" data-name="Path 386" d="M57.468,29.781a2.192,2.192,0,0,0-2.63-1.753L43.879,30.22a2.2,2.2,0,0,0,.438,4.384h.438l10.959-2.192a2.192,2.192,0,0,0,1.753-2.63Z" transform="translate(47.547 32.15)" fill="#fab250"/>
    <path id="Path_387" data-name="Path 387" d="M4.192,50.452h26.3a2.192,2.192,0,0,0,2.192-2.192V13.192A2.192,2.192,0,0,0,30.493,11H4.192A2.192,2.192,0,0,0,2,13.192V48.261A2.192,2.192,0,0,0,4.192,50.452ZM6.384,15.384H28.3V46.069H6.384Z" transform="translate(0 11.918)" fill="#fab250"/>
    <path id="Path_388" data-name="Path 388" d="M14.575,15H10.192a2.192,2.192,0,1,0,0,4.384h4.384a2.192,2.192,0,0,0,0-4.384Z" transform="translate(7.151 16.685)" fill="#fab250"/>
    <path id="Path_389" data-name="Path 389" d="M16.959,19H8.192a2.192,2.192,0,1,0,0,4.384h8.767a2.192,2.192,0,1,0,0-4.384Z" transform="translate(4.767 21.452)" fill="#fab250"/>
    <path id="Path_390" data-name="Path 390" d="M16.959,23H8.192a2.192,2.192,0,1,0,0,4.384h8.767a2.192,2.192,0,1,0,0-4.384Z" transform="translate(4.767 26.219)" fill="#fab250"/>
    <path id="Path_391" data-name="Path 391" d="M68.4,35.49a2.2,2.2,0,1,0-3.814,2.192l9.666,16.723L39.184,67.556h-.329l-5.7,3.288-3.792,2.192a4.377,4.377,0,0,1-5.984-1.6L19,63.852a4.384,4.384,0,0,1,1.644-5.786l7.584-4.384,5.479,9.49a2.2,2.2,0,1,0,3.814-2.192l-5.655-9.775L59.371,28.52l.9,1.556a2.2,2.2,0,0,0,3.814-2.192l-2.192-3.792a2.221,2.221,0,0,0-3.31-.592L27.9,48.794,18.56,54.186a8.767,8.767,0,0,0-4.033,9.929l-2.192,1.249a6.57,6.57,0,0,0,3.288,12.274,6.707,6.707,0,0,0,3.288-.877L21.1,75.512a8.5,8.5,0,0,0,3.836,2.279,8.307,8.307,0,0,0,2.3.307,8.636,8.636,0,0,0,4.384-1.184l1.907-1.1,4.384,7.606a6.57,6.57,0,1,0,11.375-6.575L45.3,69.9l32.877-12.34a2.2,2.2,0,0,0,1.14-3.134ZM16.631,72.948a2.19,2.19,0,1,1-2.192-3.792l1.907-1.1,2.192,3.792Zm28.844,6.137a2.19,2.19,0,0,1-3.792,2.192L37.3,73.671l3.638-2.082h.175Z" transform="translate(8.383 26.223)" fill="#fab250"/>
  </g>
</svg>
