<svg xmlns="http://www.w3.org/2000/svg" width="142" height="128.17" viewBox="0 0 142 128.17">
  <g id="promotion" transform="translate(0 2.8)">
    <path id="Path_371" data-name="Path 371" d="M126.124,294.75a2.773,2.773,0,1,0-3.789-1.015A2.775,2.775,0,0,0,126.124,294.75Zm0,0" transform="translate(-88.138 -209.263)" fill="#fab250"/>
    <path id="Path_372" data-name="Path 372" d="M26.621,120.784l13.967,24.193A11.093,11.093,0,1,0,59.8,133.884l-8.32-14.413,7.206-4.16a2.774,2.774,0,0,0,1.015-3.789L56.1,105.276l53.122-10.42a8.319,8.319,0,0,0,6.744-12.466l-9.217-15.965,5.89-8.922a2.775,2.775,0,0,0,.088-2.915l-5.547-9.607a2.779,2.779,0,0,0-2.569-1.381l-10.67.64L83.7,26.516a8.248,8.248,0,0,0-7.1-4.159H76.5a8.247,8.247,0,0,0-7.005,3.836L33.262,72.346,9.708,85.944a19.414,19.414,0,0,0,16.913,34.84ZM55,136.659a5.547,5.547,0,0,1-9.608,5.546L31.524,118.183l9.607-5.547c16.049,27.8,13.61,23.577,13.868,24.023Zm-6.291-21.992-2.773-4.8,4.8-2.773,2.773,4.8Zm54.521-65.428,3.833,6.639-3.418,5.176L97.038,49.61Zm-29.1-20.006a2.773,2.773,0,0,1,4.769.055l32.259,55.875a2.773,2.773,0,0,1-2.334,4.158,10.182,10.182,0,0,0-1.521.258l-34.123-59.1c.716-.921.808-1.01.95-1.243ZM69.49,35.177l32.06,55.531L53.164,100.2,38.452,74.716ZM7.406,109.691a13.858,13.858,0,0,1,5.076-18.943L34.1,78.267l13.867,24.018L26.348,114.767a13.884,13.884,0,0,1-18.943-5.077Zm0,0" transform="translate(0 -25.155)" fill="#fab250"/>
    <path id="Path_373" data-name="Path 373" d="M60.238,310.96a2.774,2.774,0,0,0-3.789-1.015l-4.8,2.773a2.777,2.777,0,0,1-3.789-1.015,2.773,2.773,0,0,0-4.8,2.773,8.331,8.331,0,0,0,11.366,3.045l4.8-2.773a2.774,2.774,0,0,0,1.015-3.789Zm0,0" transform="translate(-30.844 -223.715)" fill="#fab250"/>
    <path id="Path_374" data-name="Path 374" d="M453.155,42.832l-15.454,8.6a2.774,2.774,0,0,0,2.7,4.847l15.453-8.6a2.773,2.773,0,0,0-2.7-4.847Zm0,0" transform="translate(-315.277 -30.699)" fill="#fab250"/>
    <path id="Path_375" data-name="Path 375" d="M454.271,139.587l-10.716-2.871a2.773,2.773,0,1,0-1.435,5.357l10.717,2.871a2.773,2.773,0,1,0,1.434-5.357Zm0,0" transform="translate(-318.015 -98.73)" fill="#fab250"/>
    <path id="Path_376" data-name="Path 376" d="M386.462,2.056l-2.874,10.717a2.774,2.774,0,0,0,5.358,1.437l2.873-10.717a2.773,2.773,0,1,0-5.357-1.437Zm0,0" transform="translate(-277.133 0)" fill="#fab250"/>
  </g>
</svg>
