<svg xmlns="http://www.w3.org/2000/svg" width="130" height="130" viewBox="0 0 130 130">
  <g id="advertising" transform="translate(-1 -1)">
    <path id="Path_392" data-name="Path 392" d="M24.29,15A6.3,6.3,0,0,0,18,21.29h4.194a2.1,2.1,0,0,1,4.194,0h4.194A6.3,6.3,0,0,0,24.29,15Z" transform="translate(18.645 15.355)" fill="#fab250"/>
    <path id="Path_393" data-name="Path 393" d="M110.032,82.774V72.29a4.2,4.2,0,0,0-4.194-4.194h-4.194a4.2,4.2,0,0,0-4.194,4.194v.759a37.817,37.817,0,0,1-15.667,3.435H61.806A10.5,10.5,0,0,0,51.323,86.968v8.387a10.468,10.468,0,0,0,2.132,6.29H47.129v-1.252a40.51,40.51,0,0,0-8.5-24.742L37.308,67.7A14.811,14.811,0,0,0,55.516,53.124v-4.7l4.194-2.1v-1.3c0-.679-.082-15.99-5.821-25.09l4.145-5.525A8.388,8.388,0,0,0,51.323,1H30.237A29.238,29.238,0,0,0,4.086,43.313L13.581,62.3v6.647A24.7,24.7,0,0,0,1,90.549v15.29A16.685,16.685,0,0,0,5.194,116.9V131H47.129v-8.387H63.9v2.1a6.29,6.29,0,0,0,12.581,0v-4.248a10.33,10.33,0,0,0,2.04-14.623h3.26a37.824,37.824,0,0,1,15.667,3.435v.759a4.2,4.2,0,0,0,4.194,4.194h4.194a4.2,4.2,0,0,0,4.194-4.194V99.548a8.387,8.387,0,0,0,0-16.774Zm-38.56,18.871A8.146,8.146,0,0,0,68.1,98.38v-17.7h8.387v20.968ZM55.516,86.968a6.3,6.3,0,0,1,6.29-6.29h2.1V97.494a8.113,8.113,0,0,0-5.366,2.357l-.512.512a6.3,6.3,0,0,1-2.51-5.007ZM51.323,45.833v7.293c0,.1-.027.195-.029.3H48.865a12.134,12.134,0,0,1-8.641-3.579L37.26,52.807a16.3,16.3,0,0,0,11.606,4.806h1.447a10.748,10.748,0,0,1-15.749,4.481l-3.047-2.032-2.325,3.489,3.047,2.032c.164.109.344.187.512.289l1.4,8.427a35.767,35.767,0,0,1-15.9-5.007l-.476-.285v-6.42a23.425,23.425,0,0,0,5.567-10.218L24.36,48.3l-3.732-2.489a6.455,6.455,0,0,1-2.854-5.452,3.746,3.746,0,0,1,3.816-3.718,3.829,3.829,0,0,1,2.728,1.124l5.158,5.158,2.47-11.109a12.5,12.5,0,0,1,12.279-9.851H50.23c4.317,6.611,5.108,17.982,5.252,21.785ZM32.475,78.339l-4.164,5.2-5.628-7.5A39.913,39.913,0,0,0,32.475,78.339ZM7.838,41.438a25.045,25.045,0,0,1,22.4-36.245H51.323A4.2,4.2,0,0,1,54.68,11.9l-4.405,5.871H44.225A16.675,16.675,0,0,0,27.849,30.91l-.814,3.657a8.053,8.053,0,0,0-5.54-2.116,7.948,7.948,0,0,0-7.915,8.029A10.576,10.576,0,0,0,18.3,49.3l1.271.849-.3,1.2a19.239,19.239,0,0,1-3.143,6.674ZM5.194,90.549a20.5,20.5,0,0,1,9.93-17.6L28.206,90.392l8.368-10.459a36.317,36.317,0,0,1,6.362,20.46v1.252H21.968V99.888a42.852,42.852,0,0,0-2.206-13.583L15.786,87.63a38.731,38.731,0,0,1,1.988,12.258v2.986l-3.579,3.579,2.965,2.965,3.579-3.579H55.516v12.581H17.774A12.593,12.593,0,0,1,5.194,105.839Zm37.742,36.257H9.387v-6.462a16.648,16.648,0,0,0,8.387,2.269H42.935Zm29.355-2.1a2.1,2.1,0,1,1-4.194,0v-2.1h2.1a10.474,10.474,0,0,0,2.1-.212Zm4.194-12.581a6.3,6.3,0,0,1-6.29,6.29H59.71V104.61l1.793-1.795a4,4,0,0,1,6.4,1.038l.99,1.986h1.3a6.3,6.3,0,0,1,6.29,6.29Zm5.3-10.484H80.677V80.677h1.107a42.041,42.041,0,0,0,15.667-3.065v27.1a42.041,42.041,0,0,0-15.667-3.065Zm19.861,8.387V72.29h4.194l0,37.742Zm8.387-14.677V86.968a4.194,4.194,0,0,1,0,8.387Z" transform="translate(0 0)" fill="#fab250"/>
    <path id="Path_394" data-name="Path 394" d="M59,43h8.387v4.194H59Z" transform="translate(63.613 46.064)" fill="#fab250"/>
    <path id="Path_395" data-name="Path 395" d="M0,0H8.9V4.194H0Z" transform="translate(119.012 81.295) rotate(-45)" fill="#fab250"/>
    <path id="Path_396" data-name="Path 396" d="M0,0H4.194V8.9H0Z" transform="translate(119.009 101.034) rotate(-45)" fill="#fab250"/>
    <path id="Path_397" data-name="Path 397" d="M91.806,1H37.29A6.3,6.3,0,0,0,31,7.29V49.226c0,.107.025.205.031.31-.006.069-.021.134-.025.2l.046,0a6.276,6.276,0,0,0,6.238,5.772h8.387v3.325a5.062,5.062,0,0,0,8.641,3.579l6.9-6.9H91.806a6.3,6.3,0,0,0,6.29-6.29V7.29A6.3,6.3,0,0,0,91.806,1ZM35.194,7.29a2.1,2.1,0,0,1,2.1-2.1H91.806a2.1,2.1,0,0,1,2.1,2.1V38.784a21.206,21.206,0,0,0-9.02-6.928A12.575,12.575,0,1,0,67.446,13.931a12.137,12.137,0,0,0-5.84.013A12.575,12.575,0,1,0,44.161,31.854a21.23,21.23,0,0,0-8.968,6.863ZM64.548,34.548a8.387,8.387,0,1,1,8.387-8.387A8.4,8.4,0,0,1,64.548,34.548ZM43.528,21.968a8.381,8.381,0,0,1,13.99-6.234,12.518,12.518,0,0,0-4.841,14.552c-.254.023-.505.069-.761.069a8.4,8.4,0,0,1-8.387-8.387Zm28.021-6.253a8.384,8.384,0,1,1,5.58,14.64c-.241,0-.474-.044-.711-.065a12.514,12.514,0,0,0-4.869-14.575ZM37.29,51.323a2.075,2.075,0,0,1-2.038-1.8A16.829,16.829,0,0,1,51.915,34.548a12.505,12.505,0,0,0,2.931-.388,12.489,12.489,0,0,0,2.1,2A18.907,18.907,0,0,0,45.8,51.323Zm22.2,0-8.135,8.133a.9.9,0,0,1-1.48-.614V53.419a14.668,14.668,0,0,1,29.187-2.1Zm32.32,0H83.3A18.907,18.907,0,0,0,72.151,36.161a12.765,12.765,0,0,0,2.09-1.988,12.571,12.571,0,0,0,2.887.375A16.829,16.829,0,0,1,93.811,49.683a2.07,2.07,0,0,1-2,1.64Z" transform="translate(32.903)" fill="#fab250"/>
  </g>
</svg>
